<svg xmlns="http://www.w3.org/2000/svg" width="117" height="22" viewBox="0 0 117 22">
  <defs>
    <linearGradient id="a" x1="4.786%" y1="-49.751%" y2="50%">
      <stop offset="0%" stop-color="#37CC9A" stop-opacity=".97"/>
      <stop offset="100%" stop-color="#45BABF"/>
    </linearGradient>
  </defs>
  <path fill="url(#a)" fill-rule="evenodd" d="M33.205 53.962v-3.106c0-1.833-.93-2.603-2.548-2.603-.75 0-1.5.119-2.07.326v7.394c.57.326 1.29.503 2.1.503 1.619 0 2.518-.799 2.518-2.514m-2.458-9.731c4.198 0 7.106 2.484 7.106 6.714v2.928c0 4.023-2.669 6.537-6.507 6.537-.99 0-2.009-.207-2.758-.503v5.205c0 .355-.18.533-.51.533H24.54c-.36 0-.54-.178-.54-.533V45.917c0-.295.12-.473.39-.562 1.829-.68 4.318-1.124 6.357-1.124M46.14 56.476c.663 0 1.443-.118 1.963-.236v-2.595c-.578-.118-1.357-.177-1.992-.177-1.588 0-2.28.53-2.28 1.475 0 1.032.923 1.533 2.309 1.533M46.197 44c3.984 0 6.322 2.124 6.322 6.607v8.08c0 .296-.144.503-.433.591-1.703.531-3.983.855-5.946.855-4.157 0-6.784-1.592-6.784-5.072 0-3.068 2.367-4.602 6.293-4.602.895 0 1.732.09 2.454.178v-.296c0-1.563-.549-2.418-2.425-2.418-1.27 0-2.771.354-3.608.826-.26.147-.549.118-.693-.177l-1.184-2.3c-.144-.296-.144-.502.058-.65C41.608 44.738 43.715 44 46.197 44m17.15 11.658c.875 0 1.689-.18 2.11-.509v-6.785c-.452-.18-1.295-.299-2.018-.299-1.628 0-2.593.658-2.593 2.54v2.631c0 1.764.995 2.422 2.502 2.422M62.896 66c-2.502 0-4.28-.508-5.968-1.614-.24-.18-.3-.449-.12-.748l1.597-2.42c.18-.27.392-.33.693-.15.965.568 2.23.986 3.617.986 1.898 0 2.863-.717 2.833-2.929a9.815 9.815 0 0 1-2.803.449c-3.888 0-6.57-2.332-6.57-6.397v-2.452c0-4.663 3.134-6.725 7.233-6.725 2.23 0 4.49.508 6.269 1.196.27.12.392.329.392.627v12.645c0 5.11-2.11 7.532-7.173 7.532m15.419-9.524c.663 0 1.443-.118 1.963-.236v-2.595c-.578-.118-1.357-.177-1.992-.177-1.588 0-2.28.53-2.28 1.475 0 1.032.923 1.533 2.309 1.533M78.372 44c3.984 0 6.322 2.124 6.322 6.607v8.08c0 .296-.145.503-.433.591-1.703.531-3.983.855-5.946.855-4.157 0-6.784-1.592-6.784-5.072 0-3.068 2.367-4.602 6.293-4.602.895 0 1.732.09 2.454.178v-.296c0-1.563-.549-2.418-2.425-2.418-1.27 0-2.772.354-3.608.826-.26.147-.549.118-.693-.177l-1.184-2.3c-.144-.296-.144-.502.058-.65C73.783 44.738 75.89 44 78.372 44zm9.756 16.133c-.34 0-.51-.181-.51-.544V45.873a.69.69 0 0 1 .369-.634C89.544 44.423 91.355 44 93.195 44c.85 0 1.727.12 2.746.302.311.06.453.242.453.574v2.78c0 .362-.198.543-.538.483-.566-.09-1.189-.12-1.755-.12-.85 0-1.614.15-2.151.392v11.178c0 .363-.17.544-.482.544h-3.34zM119.058 44c3.898 0 6.586 2.361 6.586 6.63v8.959c0 .363-.177.544-.502.544h-3.427c-.354 0-.531-.181-.531-.544v-9.111c0-1.483-.709-2.361-2.274-2.361-.65 0-1.3.151-1.92.484.207.605.295 1.271.295 1.967v9.02c0 .364-.177.545-.502.545h-3.426c-.354 0-.531-.181-.531-.544v-9.111c0-1.575-.71-2.392-2.157-2.392-.62 0-1.27.121-1.742.273v11.23c0 .363-.207.544-.532.544h-3.426c-.354 0-.531-.181-.531-.544V45.847c0-.303.118-.515.413-.666 1.713-.727 3.84-1.181 5.76-1.181 1.535 0 2.894.454 4.016 1.272 1.566-.848 2.835-1.272 4.43-1.272zm15.462 3.746c-1.33 0-2.228.708-2.228 2.33v.62h4.456v-.62c0-1.592-.926-2.33-2.228-2.33zm6.48 5.368c0 .325-.174.501-.52.501h-8.188v.472c0 1.505.955 2.271 2.488 2.271 1.447 0 2.633-.442 3.674-1.061.26-.207.492-.148.665.118l1.505 2.035c.174.265.174.53-.087.737-1.475 1.15-3.356 1.946-5.901 1.946-3.761 0-6.798-2.035-6.798-6.134v-3.716c0-4.395 3.037-6.283 6.711-6.283 3.558 0 6.451 1.83 6.451 6.283v2.83zm-39.706 6.92l-3.182-2.022a.515.515 0 0 1 0-.89l3.183-2.022c.399-.254.949.004.949.445v4.043c0 .441-.55.699-.95.445z" transform="translate(-24 -44)"/>
</svg>
