<svg width="129" height="35" viewBox="0 0 129 35" fill="none" xmlns="http://www.w3.org/2000/svg">
<mask id="mask0" mask-type="alpha" maskUnits="userSpaceOnUse" x="106" y="0" width="23" height="24">
<path fill-rule="evenodd" clip-rule="evenodd" d="M106.53 0H128.676V23.0728H106.53V0Z" fill="white"/>
</mask>
<g mask="url(#mask0)">
<path fill-rule="evenodd" clip-rule="evenodd" d="M121.338 23.0728H128.654C128.666 22.7732 128.677 22.4737 128.677 22.171C128.677 9.95398 118.744 0.0139845 106.53 -0.000427246V7.30788C114.725 7.31303 121.368 13.9738 121.368 22.1716C121.368 22.4742 121.356 22.7743 121.338 23.0728" fill="#65A300"/>
</g>
<mask id="mask1" mask-type="alpha" maskUnits="userSpaceOnUse" x="0" y="15" width="15" height="19">
<path fill-rule="evenodd" clip-rule="evenodd" d="M0 15.0576H14.0684V33.886H0V15.0576Z" fill="white"/>
</mask>
<g mask="url(#mask1)">
<path fill-rule="evenodd" clip-rule="evenodd" d="M10.0393 18.7938C9.28581 17.9517 8.28882 17.5307 7.04735 17.5307C5.77088 17.5307 4.7425 17.9471 3.96272 18.7804C3.18243 19.6137 2.79228 20.6951 2.79228 22.0251C2.79228 23.4081 3.18243 24.4983 3.96272 25.2961C4.7425 26.0939 5.79765 26.4928 7.12713 26.4928C8.36809 26.4928 9.35221 26.0805 10.079 25.2565C10.8063 24.4319 11.1696 23.3634 11.1696 22.0519C11.1696 20.7219 10.7929 19.6359 10.0393 18.7938V18.7938ZM0 15.3231H2.87206V17.1051C2.90757 17.052 2.96522 16.9769 3.045 16.8791C3.12478 16.7818 3.30235 16.6176 3.57669 16.387C3.85206 16.1565 4.15316 15.9526 4.48103 15.7756C4.8089 15.5985 5.25257 15.4343 5.81103 15.2835C6.36949 15.1327 6.95007 15.0576 7.55279 15.0576C9.4675 15.0576 11.0322 15.6912 12.2469 16.9589C13.4611 18.2266 14.0685 19.8979 14.0685 21.9716C14.0685 24.1524 13.4611 25.8633 12.2469 27.1042C11.0322 28.3457 9.43199 28.9659 7.44625 28.9659C6.84353 28.9659 6.27632 28.8949 5.74412 28.7534C5.21243 28.6113 4.77801 28.4389 4.4414 28.2345C4.10426 28.0307 3.81191 27.8315 3.56331 27.6365C3.31574 27.4414 3.13816 27.2731 3.03162 27.131L2.87206 26.9184V33.886H0V15.3231Z" fill="#1B1C29"/>
</g>
<path fill-rule="evenodd" clip-rule="evenodd" d="M19.9555 25.243C20.709 26.0763 21.706 26.4927 22.9469 26.4927C24.2589 26.4927 25.3007 26.0938 26.0722 25.2965C26.8433 24.4982 27.2288 23.408 27.2288 22.025C27.2288 20.6955 26.8299 19.6229 26.0321 18.8071C25.2343 17.9918 24.1972 17.5842 22.9207 17.5842C21.6617 17.5842 20.6642 17.9918 19.9287 18.8071C19.1932 19.6229 18.8252 20.6955 18.8252 22.025C18.8252 23.337 19.2019 24.4097 19.9555 25.243V25.243ZM30.0211 28.7533H27.149V26.9183C27.1135 26.9714 27.0605 27.047 26.9894 27.1443C26.9184 27.2421 26.7501 27.4058 26.4845 27.6364C26.2184 27.8669 25.9302 28.0708 25.6198 28.2478C25.3094 28.4254 24.8843 28.5891 24.3433 28.7399C23.8029 28.8907 23.2311 28.9658 22.6278 28.9658C20.6776 28.9658 19.0779 28.3724 17.8277 27.1839C16.578 25.9965 15.9531 24.2944 15.9531 22.0786C15.9531 19.9863 16.5914 18.3022 17.8678 17.0257C19.1443 15.7487 20.7131 15.1105 22.5748 15.1105C23.5322 15.1105 24.3922 15.2747 25.1545 15.6025C25.9168 15.9304 26.4397 16.2542 26.7233 16.5733L27.149 17.0519V15.3498H30.0211V28.7533Z" fill="#1B1C29"/>
<path fill-rule="evenodd" clip-rule="evenodd" d="M35.9086 25.0701C36.6621 25.8766 37.6591 26.2802 38.9001 26.2802C40.1946 26.2802 41.2317 25.8854 42.012 25.0969C42.7923 24.3078 43.1819 23.2573 43.1819 21.9453C43.1819 20.6513 42.783 19.6008 41.9852 18.7938C41.1874 17.9872 40.1503 17.5842 38.8738 17.5842C37.6149 17.5842 36.6179 17.9872 35.8818 18.7938C35.1463 19.6008 34.7783 20.6513 34.7783 21.9453C34.7783 23.2218 35.1551 24.2635 35.9086 25.0701V25.0701ZM45.9747 27.3971C45.9747 31.9183 43.6874 34.1783 39.1132 34.1783C38.3859 34.1783 37.6813 34.0991 36.9988 33.939C36.3163 33.7794 35.7444 33.5936 35.2838 33.3805C34.8226 33.168 34.4149 32.9508 34.0603 32.7289C33.7057 32.5076 33.4401 32.3172 33.2625 32.1576L33.0232 31.9183L34.4592 29.7905L34.6589 29.9902C34.7387 30.0699 34.9245 30.2161 35.2174 30.4287C35.5097 30.6418 35.8201 30.8322 36.1479 31.0005C36.4758 31.1688 36.8968 31.3197 37.411 31.4524C37.9252 31.5858 38.4482 31.6522 38.9804 31.6522C40.4339 31.6522 41.4844 31.3284 42.1314 30.6814C42.7789 30.0344 43.1021 29.0992 43.1021 27.8758V26.7321C43.0666 26.7856 43.0136 26.8561 42.9426 26.9452C42.8715 27.0337 42.7032 27.1974 42.4376 27.4372C42.1715 27.676 41.8833 27.8845 41.5729 28.0616C41.2626 28.2391 40.8374 28.3987 40.2965 28.5408C39.756 28.6823 39.1842 28.7533 38.5815 28.7533C36.6312 28.7533 35.031 28.1686 33.7813 26.9982C32.5311 25.8283 31.9062 24.1524 31.9062 21.9716C31.9062 19.9333 32.5445 18.2801 33.821 17.0124C35.0974 15.7447 36.6668 15.1105 38.5279 15.1105C39.4853 15.1105 40.3454 15.2747 41.1076 15.6026C41.8704 15.9305 42.3934 16.2542 42.6765 16.5733L43.1021 17.052V15.3231H45.9747V27.3971Z" fill="#1B1C29"/>
<path fill-rule="evenodd" clip-rule="evenodd" d="M51.8842 25.2164C52.6377 26.0497 53.6352 26.4661 54.8762 26.4661C56.1882 26.4661 57.2294 26.0672 58.001 25.2699C58.772 24.4716 59.1575 23.3814 59.1575 21.9984C59.1575 20.6689 58.7586 19.5963 57.9613 18.7805C57.163 17.9652 56.1259 17.5575 54.8494 17.5575C53.5904 17.5575 52.5935 17.9652 51.8579 18.7805C51.1219 19.5963 50.7539 20.6689 50.7539 21.9984C50.7539 23.3104 51.1307 24.3831 51.8842 25.2164V25.2164ZM61.9503 28.7267H59.0782V26.8917C59.0427 26.9447 58.9892 27.0204 58.9187 27.1177C58.8476 27.2155 58.6793 27.3792 58.4132 27.6097C58.1471 27.8403 57.8589 28.0442 57.5485 28.2212C57.2387 28.3988 56.813 28.5625 56.2721 28.7133C55.7316 28.8641 55.1598 28.9392 54.5571 28.9392C52.6068 28.9392 51.0066 28.3458 49.7569 27.1578C48.5067 25.9699 47.8818 24.2678 47.8818 22.052C47.8818 19.9597 48.5201 18.2756 49.7965 16.9991C51.073 15.7226 52.6424 15.0839 54.5035 15.0839C55.4614 15.0839 56.321 15.2481 57.0837 15.5759C57.846 15.9043 58.369 16.2275 58.6526 16.5467L59.0782 17.0253V15.3232H61.9503V28.7267Z" fill="#1B1C29"/>
<path fill-rule="evenodd" clip-rule="evenodd" d="M70.8852 18.1954C69.6972 18.0889 68.7667 18.3776 68.0929 19.0596C67.4192 19.7421 67.082 20.6778 67.082 21.8653V28.7268H64.21V15.2966H67.082V17.7167C67.1 17.6462 67.1397 17.5484 67.2019 17.4244C67.2637 17.3003 67.4058 17.0785 67.6271 16.7594C67.8489 16.4403 68.097 16.1654 68.3719 15.9348C68.6467 15.7047 69.0322 15.4963 69.5289 15.31C70.0251 15.1242 70.5568 15.0485 71.1245 15.084L70.8852 18.1954Z" fill="#1B1C29"/>
<path fill-rule="evenodd" clip-rule="evenodd" d="M72.1111 24.8971C72.5898 24.4359 73.1745 24.2059 73.8662 24.2059C74.5575 24.2059 75.1427 24.4359 75.6214 24.8971C76.1001 25.3583 76.3394 25.9255 76.3394 26.5993C76.3394 27.273 76.1001 27.8402 75.6214 28.3014C75.1427 28.762 74.5575 28.9926 73.8662 28.9926C73.1745 28.9926 72.5898 28.762 72.1111 28.3014C71.6324 27.8402 71.3931 27.273 71.3931 26.5993C71.3931 25.9255 71.6324 25.3583 72.1111 24.8971" fill="#1B1C29"/>
<path fill-rule="evenodd" clip-rule="evenodd" d="M78.9053 15.0574H82.9478V16.8393C82.9828 16.7858 83.0276 16.7153 83.0806 16.6262C83.1336 16.5377 83.2623 16.3782 83.4661 16.1481C83.6699 15.9175 83.8959 15.7132 84.1445 15.5361C84.3926 15.3585 84.7292 15.199 85.1548 15.0574C85.5805 14.9159 86.0324 14.8448 86.5111 14.8448C87.0078 14.8448 87.4597 14.9112 87.8673 15.044C88.2755 15.1768 88.5987 15.3364 88.8381 15.5227C89.0774 15.709 89.2766 15.8907 89.4362 16.0678C89.5962 16.2454 89.7115 16.4049 89.782 16.547L89.8618 16.7328C89.8973 16.6798 89.9462 16.6129 90.008 16.5336C90.0703 16.4533 90.2164 16.303 90.447 16.0812C90.6776 15.8598 90.9257 15.6648 91.1918 15.4965C91.4574 15.3276 91.812 15.1768 92.2552 15.044C92.6984 14.9112 93.1595 14.8448 93.6382 14.8448C96.5108 14.8448 97.9468 16.5022 97.9468 19.8179V28.727H93.9043V20.3496C93.9043 18.9491 93.3901 18.2486 92.3617 18.2486C91.0853 18.2486 90.447 19.1797 90.447 21.0409V28.727H86.4045V20.3496C86.4045 18.9491 85.8903 18.2486 84.8625 18.2486C83.586 18.2486 82.9478 19.1797 82.9478 21.0409V28.727H78.9053V15.0574Z" fill="#1B1C29"/>
<path fill-rule="evenodd" clip-rule="evenodd" d="M109.857 20.4561C109.839 20.385 109.822 20.3011 109.804 20.2033C109.786 20.1061 109.711 19.9197 109.579 19.6449C109.445 19.37 109.281 19.1307 109.086 18.9269C108.891 18.723 108.607 18.5367 108.235 18.3684C107.863 18.2001 107.437 18.1157 106.959 18.1157C106.48 18.1157 106.054 18.1955 105.682 18.355C105.31 18.5146 105.026 18.7097 104.831 18.9402C104.636 19.1708 104.477 19.4014 104.353 19.6315C104.228 19.8621 104.158 20.0572 104.14 20.2167L104.087 20.4561H109.857ZM113.368 26.5996C113.315 26.6701 113.239 26.7586 113.142 26.8652C113.044 26.9717 112.814 27.1622 112.451 27.437C112.087 27.7119 111.697 27.9553 111.28 28.1684C110.864 28.381 110.309 28.5719 109.618 28.7402C108.926 28.9086 108.2 28.9925 107.437 28.9925C105.008 28.9925 103.134 28.3589 101.813 27.0911C100.492 25.8234 99.8315 24.0816 99.8315 21.8653C99.8315 19.7736 100.505 18.0668 101.853 16.7461C103.2 15.4253 104.902 14.765 106.959 14.765C109.192 14.765 110.944 15.4562 112.211 16.8392C113.479 18.2222 114.113 20.1282 114.113 22.5571V23.2483H104.06C104.06 23.3194 104.073 23.4079 104.1 23.5144C104.126 23.6205 104.211 23.8068 104.353 24.0729C104.494 24.3385 104.676 24.5778 104.898 24.7909C105.119 25.0035 105.456 25.1944 105.908 25.3627C106.361 25.5311 106.888 25.615 107.49 25.615C108.164 25.615 108.812 25.4868 109.432 25.2294C110.053 24.9726 110.504 24.7111 110.788 24.445L111.187 24.0461L113.368 26.5996Z" fill="#1B1C29"/>
</svg>
